<svg width="24" height="25" fill="none" xmlns="http://www.w3.org/2000/svg"><mask id="a" style="mask-type:alpha"  x="0" y="0" width="24" height="25"><path fill="#C4C4C4" d="M0 .768h24v24H0z"/></mask><g mask="url(#a)"><path d="M19.55 22.918a.755.755 0 0 1-.442-.144l-7.458-5.428-7.458 5.43A.75.75 0 0 1 3 22.17V5.02c0-1.24 1.01-2.25 2.25-2.25h12.798c1.24 0 2.25 1.01 2.25 2.25v17.15a.749.749 0 0 1-.75.75h.002zm-7.9-7.25a.74.74 0 0 1 .44.144l6.71 4.883V5.018a.752.752 0 0 0-.75-.75H5.25a.752.752 0 0 0-.75.75v15.677l6.71-4.883a.74.74 0 0 1 .44-.144z" fill="white"/></g></svg>
