<svg width="20" height="21" fill="none" xmlns="http://www.w3.org/2000/svg"><path d="M18.585 8.236c.66 0 1.2-.538 1.2-1.2 0-.662-.54-1.2-1.2-1.2h-3.22l.31-3.547a1.2 1.2 0 0 0-1.099-1.3c-.65-.035-1.235.432-1.293 1.093l-.326 3.754H7.9l.308-3.545A1.203 1.203 0 0 0 7.11.989a1.196 1.196 0 0 0-1.293 1.092l-.325 3.754h-3.33a1.2 1.2 0 0 0 0 2.4h3.122l-.44 5.064h-3.43a1.202 1.202 0 0 0 0 2.402h3.22l-.31 3.548a1.205 1.205 0 0 0 1.09 1.3l.107.005c.626 0 1.14-.472 1.195-1.098l.327-3.753H12.1l-.308 3.544c-.06.658.43 1.242 1.09 1.302l.106.005c.617 0 1.142-.482 1.195-1.098l.325-3.753h3.33c.66 0 1.2-.54 1.2-1.2 0-.66-.54-1.202-1.2-1.202h-3.122l.44-5.064h3.43-.001zm-5.838 0-.44 5.063H7.253l.44-5.062h5.055-.001z" fill="#000"/></svg>
