<svg width="28" height="29" fill="none" xmlns="http://www.w3.org/2000/svg"><mask id="a" style="mask-type:alpha" x="0" y="0" width="28" height="29"><path fill="#C4C4C4" d="M0 .768h28v28H0z"/></mask><g mask="url(#a)"><path d="M26.46 9.603 14.67 3.241a1.167 1.167 0 0 0-1.108 0L1.78 9.603a1.169 1.169 0 0 0 .554 2.195c.187 0 .378-.045.554-.14l.857-.462L5.599 24.32c.252 1.416 1.528 2.405 3.103 2.405h10.829c1.575 0 2.851-.989 3.106-2.436l1.852-13.095.86.464a1.165 1.165 0 0 0 1.58-.472 1.168 1.168 0 0 0-.471-1.58l.002-.004zm-12.344 9.433a3.792 3.792 0 1 1 0-7.583 3.792 3.792 0 0 1 0 7.583z" fill="#000"/></g></svg>