<svg width="24" height="25" fill="none" xmlns="http://www.w3.org/2000/svg"><mask id="a" style="mask-type:alpha"  x="0" y="0" width="24" height="25"><path fill="#C4C4C4" d="M0 .768h24v24H0z"/></mask><g mask="url(#a)" fill="#000"><path d="M19.75 22.768H4.25c-1.24 0-2.25-1.01-2.25-2.25v-15.5c0-1.24 1.01-2.25 2.25-2.25h15.5c1.24 0 2.25 1.01 2.25 2.25v15.5c0 1.24-1.01 2.25-2.25 2.25zm-15.5-18.5a.75.75 0 0 0-.75.75v15.5c0 .413.336.75.75.75h15.5a.75.75 0 0 0 .75-.75v-15.5a.75.75 0 0 0-.75-.75H4.25z"/><path d="M16.75 9.268h-10a.75.75 0 0 1 0-1.5h10a.75.75 0 1 1 0 1.5zm0 4.11h-10a.75.75 0 0 1 0-1.5h10a.75.75 0 0 1 0 1.5zm-5 4.11h-5a.75.75 0 1 1 0-1.5h5a.75.75 0 0 1 0 1.5z"/></g></svg>
