<svg width="28" height="29" fill="none" xmlns="http://www.w3.org/2000/svg"><mask id="a" style="mask-type:alpha" x="0" y="0" width="28" height="29"><path fill="#C4C4C4" d="M0 .768h28v28H0z"/></mask><g mask="url(#a)" fill="#000"><path d="M18.958 12.435a2.045 2.045 0 0 0-2.041 2.041c0 1.124.914 2.042 2.041 2.042A2.045 2.045 0 0 0 21 14.476a2.045 2.045 0 0 0-2.042-2.041zm0 2.916a.875.875 0 1 1 0-1.75.875.875 0 0 1 0 1.75zm-5.25-2.916a2.045 2.045 0 0 0-2.042 2.041c0 1.124.916 2.042 2.042 2.042a2.045 2.045 0 0 0 2.042-2.042 2.044 2.044 0 0 0-2.042-2.041zm0 2.916a.875.875 0 1 1 0-1.75.875.875 0 0 1 0 1.75zm-5.25-2.916a2.045 2.045 0 0 0-2.042 2.041c0 1.124.916 2.042 2.042 2.042a2.045 2.045 0 0 0 2.042-2.042 2.046 2.046 0 0 0-2.042-2.041zm0 2.916a.875.875 0 1 1 0-1.75.875.875 0 0 1 0 1.75z"/><path d="M13.708 27.018c-6.916 0-12.541-5.626-12.541-12.542 0-6.916 5.625-12.541 12.541-12.541S26.25 7.56 26.25 14.476s-5.626 12.542-12.542 12.542zm0-23.333c-5.95 0-10.791 4.841-10.791 10.791s4.841 10.792 10.791 10.792S24.5 20.426 24.5 14.476 19.658 3.685 13.708 3.685z"/></g></svg>
