<svg width="28" height="29" fill="none" xmlns="http://www.w3.org/2000/svg">
    <mask id="a" style="mask-type:alpha" x="0" y="0" width="28" height="29">
        <path fill="white" d="M0 .768h28v28H0z"/>
    </mask>
    <g mask="url(#a)">
        <path d="M25.314 20.062c-.023-.018-2.497-1.913-2.453-7.035.023-2.954-.948-5.579-2.739-7.39-1.604-1.626-3.776-2.524-6.115-2.536h-.015c-2.338.012-4.51.91-6.116 2.537-1.79 1.812-2.763 4.435-2.737 7.39.043 5.051-2.357 6.96-2.452 7.034a.876.876 0 0 0 .521 1.579h5.74c.12 2.695 2.33 4.853 5.052 4.853 2.722 0 4.93-2.158 5.048-4.853h5.742a.87.87 0 0 0 .829-.6.872.872 0 0 0-.307-.977l.002-.002zm-11.313 4.679a3.314 3.314 0 0 1-3.3-3.101h6.6c-.117 1.726-1.544 3.103-3.3 3.103v-.002zm-8.89-4.851c.863-1.32 1.806-3.533 1.778-6.879-.02-2.52.751-4.646 2.232-6.145C10.396 5.575 12.13 4.86 14 4.851c1.87.01 3.601.724 4.877 2.016 1.481 1.5 2.255 3.624 2.234 6.145-.028 3.346.916 5.56 1.779 6.879H5.111v-.001z"
              fill="white"/>
    </g>
</svg>
