<svg width="20" height="22" fill="none" xmlns="http://www.w3.org/2000/svg"><path d="M19.697 15.236c-.02-.016-2.14-1.64-2.103-6.03.02-2.533-.812-4.782-2.347-6.334C13.872 1.48 12.01.708 10.005.7h-.013c-2.004.008-3.866.78-5.242 2.172-1.534 1.553-2.367 3.802-2.346 6.333.037 4.332-2.02 5.967-2.102 6.03a.751.751 0 0 0 .448 1.353h4.494c.1 2.544 2.188 4.587 4.756 4.587s4.655-2.043 4.756-4.587h4.494a.75.75 0 0 0 .447-1.352zM10 19.176a2.771 2.771 0 0 1-2.756-2.588h5.512A2.772 2.772 0 0 1 10 19.175v.001z" fill="#000"/></svg>
